%TF.GenerationSoftware,KiCad,Pcbnew,8.0.8*%
%TF.CreationDate,2025-03-16T07:00:45-06:00*%
%TF.ProjectId,RC11,52433131-2e6b-4696-9361-645f70636258,rev?*%
%TF.SameCoordinates,Original*%
%TF.FileFunction,Paste,Top*%
%TF.FilePolarity,Positive*%
%FSLAX46Y46*%
G04 Gerber Fmt 4.6, Leading zero omitted, Abs format (unit mm)*
G04 Created by KiCad (PCBNEW 8.0.8) date 2025-03-16 07:00:45*
%MOMM*%
%LPD*%
G01*
G04 APERTURE LIST*
G04 Aperture macros list*
%AMRoundRect*
0 Rectangle with rounded corners*
0 $1 Rounding radius*
0 $2 $3 $4 $5 $6 $7 $8 $9 X,Y pos of 4 corners*
0 Add a 4 corners polygon primitive as box body*
4,1,4,$2,$3,$4,$5,$6,$7,$8,$9,$2,$3,0*
0 Add four circle primitives for the rounded corners*
1,1,$1+$1,$2,$3*
1,1,$1+$1,$4,$5*
1,1,$1+$1,$6,$7*
1,1,$1+$1,$8,$9*
0 Add four rect primitives between the rounded corners*
20,1,$1+$1,$2,$3,$4,$5,0*
20,1,$1+$1,$4,$5,$6,$7,0*
20,1,$1+$1,$6,$7,$8,$9,0*
20,1,$1+$1,$8,$9,$2,$3,0*%
G04 Aperture macros list end*
%ADD10C,0.010000*%
%ADD11R,1.300000X1.500000*%
%ADD12R,1.500000X0.650000*%
%ADD13RoundRect,0.150000X-0.150000X0.800000X-0.150000X-0.800000X0.150000X-0.800000X0.150000X0.800000X0*%
%ADD14RoundRect,0.200000X0.275000X-0.200000X0.275000X0.200000X-0.275000X0.200000X-0.275000X-0.200000X0*%
%ADD15RoundRect,0.200000X-0.275000X0.200000X-0.275000X-0.200000X0.275000X-0.200000X0.275000X0.200000X0*%
%ADD16RoundRect,0.200000X0.200000X0.275000X-0.200000X0.275000X-0.200000X-0.275000X0.200000X-0.275000X0*%
%ADD17RoundRect,0.225000X-0.225000X-0.250000X0.225000X-0.250000X0.225000X0.250000X-0.225000X0.250000X0*%
%ADD18RoundRect,0.200000X-0.200000X-0.275000X0.200000X-0.275000X0.200000X0.275000X-0.200000X0.275000X0*%
%ADD19R,5.400000X2.900000*%
%ADD20RoundRect,0.150000X0.150000X0.625000X-0.150000X0.625000X-0.150000X-0.625000X0.150000X-0.625000X0*%
%ADD21RoundRect,0.250000X0.350000X0.650000X-0.350000X0.650000X-0.350000X-0.650000X0.350000X-0.650000X0*%
%ADD22R,1.050000X3.210000*%
%ADD23R,1.750000X0.950000*%
%ADD24R,1.750000X3.250000*%
%ADD25RoundRect,0.175000X0.175000X0.175000X-0.175000X0.175000X-0.175000X-0.175000X0.175000X-0.175000X0*%
%ADD26RoundRect,0.225000X-0.225000X-0.375000X0.225000X-0.375000X0.225000X0.375000X-0.225000X0.375000X0*%
%ADD27RoundRect,0.225000X0.225000X0.375000X-0.225000X0.375000X-0.225000X-0.375000X0.225000X-0.375000X0*%
%ADD28R,1.800000X1.800000*%
%ADD29RoundRect,1.025000X-1.125000X1.025000X-1.125000X-1.025000X1.125000X-1.025000X1.125000X1.025000X0*%
%ADD30R,4.300000X4.100000*%
%ADD31RoundRect,0.218750X0.218750X0.256250X-0.218750X0.256250X-0.218750X-0.256250X0.218750X-0.256250X0*%
%ADD32RoundRect,0.218750X-0.256250X0.218750X-0.256250X-0.218750X0.256250X-0.218750X0.256250X0.218750X0*%
%ADD33RoundRect,0.225000X-0.250000X0.225000X-0.250000X-0.225000X0.250000X-0.225000X0.250000X0.225000X0*%
%ADD34RoundRect,0.225000X0.225000X0.250000X-0.225000X0.250000X-0.225000X-0.250000X0.225000X-0.250000X0*%
%ADD35RoundRect,0.250000X0.475000X-0.250000X0.475000X0.250000X-0.475000X0.250000X-0.475000X-0.250000X0*%
%ADD36RoundRect,0.250000X-1.950000X-1.000000X1.950000X-1.000000X1.950000X1.000000X-1.950000X1.000000X0*%
%ADD37RoundRect,0.250000X1.950000X1.000000X-1.950000X1.000000X-1.950000X-1.000000X1.950000X-1.000000X0*%
%ADD38RoundRect,0.250000X1.000000X-1.950000X1.000000X1.950000X-1.000000X1.950000X-1.000000X-1.950000X0*%
%ADD39RoundRect,0.250000X-0.475000X0.250000X-0.475000X-0.250000X0.475000X-0.250000X0.475000X0.250000X0*%
G04 APERTURE END LIST*
D10*
%TO.C,S1*%
X28750000Y-62545000D02*
X28250000Y-62545000D01*
X28250000Y-61945000D01*
X28750000Y-61945000D01*
X28750000Y-62545000D01*
G36*
X28750000Y-62545000D02*
G01*
X28250000Y-62545000D01*
X28250000Y-61945000D01*
X28750000Y-61945000D01*
X28750000Y-62545000D01*
G37*
X26850000Y-62545000D02*
X26350000Y-62545000D01*
X26350000Y-61945000D01*
X26850000Y-61945000D01*
X26850000Y-62545000D01*
G36*
X26850000Y-62545000D02*
G01*
X26350000Y-62545000D01*
X26350000Y-61945000D01*
X26850000Y-61945000D01*
X26850000Y-62545000D01*
G37*
X27800000Y-64545000D02*
X27300000Y-64545000D01*
X27300000Y-63945000D01*
X27800000Y-63945000D01*
X27800000Y-64545000D01*
G36*
X27800000Y-64545000D02*
G01*
X27300000Y-64545000D01*
X27300000Y-63945000D01*
X27800000Y-63945000D01*
X27800000Y-64545000D01*
G37*
%TO.C,IC2*%
X144430000Y-67643250D02*
X143010000Y-67643250D01*
X143010000Y-66383250D01*
X144430000Y-66383250D01*
X144430000Y-67643250D01*
G36*
X144430000Y-67643250D02*
G01*
X143010000Y-67643250D01*
X143010000Y-66383250D01*
X144430000Y-66383250D01*
X144430000Y-67643250D01*
G37*
X142320000Y-67643250D02*
X140900000Y-67643250D01*
X140900000Y-66383250D01*
X142320000Y-66383250D01*
X142320000Y-67643250D01*
G36*
X142320000Y-67643250D02*
G01*
X140900000Y-67643250D01*
X140900000Y-66383250D01*
X142320000Y-66383250D01*
X142320000Y-67643250D01*
G37*
X140210000Y-67643250D02*
X138790000Y-67643250D01*
X138790000Y-66383250D01*
X140210000Y-66383250D01*
X140210000Y-67643250D01*
G36*
X140210000Y-67643250D02*
G01*
X138790000Y-67643250D01*
X138790000Y-66383250D01*
X140210000Y-66383250D01*
X140210000Y-67643250D01*
G37*
X138100000Y-67643250D02*
X136680000Y-67643250D01*
X136680000Y-66383250D01*
X138100000Y-66383250D01*
X138100000Y-67643250D01*
G36*
X138100000Y-67643250D02*
G01*
X136680000Y-67643250D01*
X136680000Y-66383250D01*
X138100000Y-66383250D01*
X138100000Y-67643250D01*
G37*
X135990000Y-67643250D02*
X134570000Y-67643250D01*
X134570000Y-66383250D01*
X135990000Y-66383250D01*
X135990000Y-67643250D01*
G36*
X135990000Y-67643250D02*
G01*
X134570000Y-67643250D01*
X134570000Y-66383250D01*
X135990000Y-66383250D01*
X135990000Y-67643250D01*
G37*
X144430000Y-69763250D02*
X143010000Y-69763250D01*
X143010000Y-68503250D01*
X144430000Y-68503250D01*
X144430000Y-69763250D01*
G36*
X144430000Y-69763250D02*
G01*
X143010000Y-69763250D01*
X143010000Y-68503250D01*
X144430000Y-68503250D01*
X144430000Y-69763250D01*
G37*
X142320000Y-69763250D02*
X140900000Y-69763250D01*
X140900000Y-68503250D01*
X142320000Y-68503250D01*
X142320000Y-69763250D01*
G36*
X142320000Y-69763250D02*
G01*
X140900000Y-69763250D01*
X140900000Y-68503250D01*
X142320000Y-68503250D01*
X142320000Y-69763250D01*
G37*
X140210000Y-69763250D02*
X138790000Y-69763250D01*
X138790000Y-68503250D01*
X140210000Y-68503250D01*
X140210000Y-69763250D01*
G36*
X140210000Y-69763250D02*
G01*
X138790000Y-69763250D01*
X138790000Y-68503250D01*
X140210000Y-68503250D01*
X140210000Y-69763250D01*
G37*
X138100000Y-69763250D02*
X136680000Y-69763250D01*
X136680000Y-68503250D01*
X138100000Y-68503250D01*
X138100000Y-69763250D01*
G36*
X138100000Y-69763250D02*
G01*
X136680000Y-69763250D01*
X136680000Y-68503250D01*
X138100000Y-68503250D01*
X138100000Y-69763250D01*
G37*
X135990000Y-69763250D02*
X134570000Y-69763250D01*
X134570000Y-68503250D01*
X135990000Y-68503250D01*
X135990000Y-69763250D01*
G36*
X135990000Y-69763250D02*
G01*
X134570000Y-69763250D01*
X134570000Y-68503250D01*
X135990000Y-68503250D01*
X135990000Y-69763250D01*
G37*
X144430000Y-71883250D02*
X143010000Y-71883250D01*
X143010000Y-70623250D01*
X144430000Y-70623250D01*
X144430000Y-71883250D01*
G36*
X144430000Y-71883250D02*
G01*
X143010000Y-71883250D01*
X143010000Y-70623250D01*
X144430000Y-70623250D01*
X144430000Y-71883250D01*
G37*
X142320000Y-71883250D02*
X140900000Y-71883250D01*
X140900000Y-70623250D01*
X142320000Y-70623250D01*
X142320000Y-71883250D01*
G36*
X142320000Y-71883250D02*
G01*
X140900000Y-71883250D01*
X140900000Y-70623250D01*
X142320000Y-70623250D01*
X142320000Y-71883250D01*
G37*
X140210000Y-71883250D02*
X138790000Y-71883250D01*
X138790000Y-70623250D01*
X140210000Y-70623250D01*
X140210000Y-71883250D01*
G36*
X140210000Y-71883250D02*
G01*
X138790000Y-71883250D01*
X138790000Y-70623250D01*
X140210000Y-70623250D01*
X140210000Y-71883250D01*
G37*
X138100000Y-71883250D02*
X136680000Y-71883250D01*
X136680000Y-70623250D01*
X138100000Y-70623250D01*
X138100000Y-71883250D01*
G36*
X138100000Y-71883250D02*
G01*
X136680000Y-71883250D01*
X136680000Y-70623250D01*
X138100000Y-70623250D01*
X138100000Y-71883250D01*
G37*
X135990000Y-71883250D02*
X134570000Y-71883250D01*
X134570000Y-70623250D01*
X135990000Y-70623250D01*
X135990000Y-71883250D01*
G36*
X135990000Y-71883250D02*
G01*
X134570000Y-71883250D01*
X134570000Y-70623250D01*
X135990000Y-70623250D01*
X135990000Y-71883250D01*
G37*
X144430000Y-74003250D02*
X143010000Y-74003250D01*
X143010000Y-72743250D01*
X144430000Y-72743250D01*
X144430000Y-74003250D01*
G36*
X144430000Y-74003250D02*
G01*
X143010000Y-74003250D01*
X143010000Y-72743250D01*
X144430000Y-72743250D01*
X144430000Y-74003250D01*
G37*
X142320000Y-74003250D02*
X140900000Y-74003250D01*
X140900000Y-72743250D01*
X142320000Y-72743250D01*
X142320000Y-74003250D01*
G36*
X142320000Y-74003250D02*
G01*
X140900000Y-74003250D01*
X140900000Y-72743250D01*
X142320000Y-72743250D01*
X142320000Y-74003250D01*
G37*
X140210000Y-74003250D02*
X138790000Y-74003250D01*
X138790000Y-72743250D01*
X140210000Y-72743250D01*
X140210000Y-74003250D01*
G36*
X140210000Y-74003250D02*
G01*
X138790000Y-74003250D01*
X138790000Y-72743250D01*
X140210000Y-72743250D01*
X140210000Y-74003250D01*
G37*
X138100000Y-74003250D02*
X136680000Y-74003250D01*
X136680000Y-72743250D01*
X138100000Y-72743250D01*
X138100000Y-74003250D01*
G36*
X138100000Y-74003250D02*
G01*
X136680000Y-74003250D01*
X136680000Y-72743250D01*
X138100000Y-72743250D01*
X138100000Y-74003250D01*
G37*
X135990000Y-74003250D02*
X134570000Y-74003250D01*
X134570000Y-72743250D01*
X135990000Y-72743250D01*
X135990000Y-74003250D01*
G36*
X135990000Y-74003250D02*
G01*
X134570000Y-74003250D01*
X134570000Y-72743250D01*
X135990000Y-72743250D01*
X135990000Y-74003250D01*
G37*
%TD*%
D11*
%TO.C,U6*%
X107620000Y-90380000D03*
X107620000Y-92920000D03*
X116620000Y-92920000D03*
X116620000Y-90380000D03*
%TD*%
D12*
%TO.C,U5*%
X125100000Y-90495000D03*
X125100000Y-91765000D03*
X125100000Y-93035000D03*
X125100000Y-94305000D03*
X130500000Y-94305000D03*
X130500000Y-93035000D03*
X130500000Y-91765000D03*
X130500000Y-90495000D03*
%TD*%
D13*
%TO.C,U3*%
X72380000Y-79275000D03*
X71110000Y-79275000D03*
X69840000Y-79275000D03*
X68570000Y-79275000D03*
X67300000Y-79275000D03*
X66030000Y-79275000D03*
X64760000Y-79275000D03*
X63490000Y-79275000D03*
X62220000Y-79275000D03*
X62220000Y-88725000D03*
X63490000Y-88725000D03*
X64760000Y-88725000D03*
X66030000Y-88725000D03*
X67300000Y-88725000D03*
X68570000Y-88725000D03*
X69840000Y-88725000D03*
X71110000Y-88725000D03*
X72380000Y-88725000D03*
%TD*%
D11*
%TO.C,U2*%
X94500000Y-90380000D03*
X94500000Y-92920000D03*
X103500000Y-92920000D03*
X103500000Y-90380000D03*
%TD*%
%TO.C,U1*%
X81380000Y-90380000D03*
X81380000Y-92920000D03*
X90380000Y-92920000D03*
X90380000Y-90380000D03*
%TD*%
D14*
%TO.C,R20*%
X124800000Y-142925000D03*
X124800000Y-141275000D03*
%TD*%
D15*
%TO.C,R19*%
X117100000Y-141275000D03*
X117100000Y-142925000D03*
%TD*%
D16*
%TO.C,R18*%
X107565000Y-87980000D03*
X105915000Y-87980000D03*
%TD*%
D14*
%TO.C,R17*%
X120950000Y-142925000D03*
X120950000Y-141275000D03*
%TD*%
D15*
%TO.C,R16*%
X29080000Y-66725000D03*
X29080000Y-68375000D03*
%TD*%
D17*
%TO.C,R15*%
X121025000Y-96600000D03*
X122575000Y-96600000D03*
%TD*%
D15*
%TO.C,R14*%
X115200000Y-60475000D03*
X115200000Y-62125000D03*
%TD*%
D18*
%TO.C,R13*%
X57575000Y-48100000D03*
X59225000Y-48100000D03*
%TD*%
%TO.C,R12*%
X58775000Y-45800000D03*
X60425000Y-45800000D03*
%TD*%
D16*
%TO.C,R11*%
X124200000Y-49300000D03*
X122550000Y-49300000D03*
%TD*%
%TO.C,R10*%
X163150000Y-147980000D03*
X161500000Y-147980000D03*
%TD*%
%TO.C,R9*%
X163150000Y-145200000D03*
X161500000Y-145200000D03*
%TD*%
%TO.C,R8*%
X163150000Y-142420000D03*
X161500000Y-142420000D03*
%TD*%
%TO.C,R7*%
X163150000Y-139640000D03*
X161500000Y-139640000D03*
%TD*%
%TO.C,R6*%
X163150000Y-134100000D03*
X161500000Y-134100000D03*
%TD*%
%TO.C,R5*%
X163200000Y-136900000D03*
X161550000Y-136900000D03*
%TD*%
%TO.C,R4*%
X163150000Y-131300000D03*
X161500000Y-131300000D03*
%TD*%
%TO.C,R3*%
X163150000Y-128520000D03*
X161500000Y-128520000D03*
%TD*%
%TO.C,R2*%
X94285000Y-87930000D03*
X92635000Y-87930000D03*
%TD*%
%TO.C,R1*%
X81165000Y-87990000D03*
X79515000Y-87990000D03*
%TD*%
D19*
%TO.C,L2*%
X167500000Y-87550000D03*
X167500000Y-77650000D03*
%TD*%
%TO.C,L1*%
X133600000Y-37300000D03*
X133600000Y-47200000D03*
%TD*%
D20*
%TO.C,J3*%
X60500000Y-39475000D03*
X59500000Y-39475000D03*
X58500000Y-39475000D03*
X57500000Y-39475000D03*
D21*
X61800000Y-42000000D03*
X56200000Y-42000000D03*
%TD*%
D22*
%TO.C,IC2*%
X142900000Y-60563250D03*
X141200000Y-60563250D03*
X139500000Y-60563250D03*
X137800000Y-60563250D03*
X136100000Y-60563250D03*
%TD*%
D23*
%TO.C,IC1*%
X123450000Y-67000000D03*
X123450000Y-69300000D03*
X123450000Y-71600000D03*
D24*
X129750000Y-69300000D03*
%TD*%
D25*
%TO.C,D18*%
X109785000Y-95820000D03*
X107635000Y-95820000D03*
%TD*%
%TO.C,D17*%
X81205000Y-95800000D03*
X79055000Y-95800000D03*
%TD*%
%TO.C,D16*%
X96615000Y-95790000D03*
X94465000Y-95790000D03*
%TD*%
D26*
%TO.C,D15*%
X121850000Y-105900000D03*
X125150000Y-105900000D03*
%TD*%
D27*
%TO.C,D14*%
X125150000Y-102350000D03*
X121850000Y-102350000D03*
%TD*%
D28*
%TO.C,D13*%
X168400000Y-73200000D03*
X172400000Y-73200000D03*
%TD*%
%TO.C,D12*%
X172300000Y-91400000D03*
X172300000Y-95400000D03*
%TD*%
D29*
%TO.C,D11*%
X155100000Y-79900000D03*
D30*
X146900000Y-79900000D03*
%TD*%
D31*
%TO.C,D10*%
X167887500Y-148020000D03*
X166312500Y-148020000D03*
%TD*%
%TO.C,D9*%
X167887500Y-145240000D03*
X166312500Y-145240000D03*
%TD*%
%TO.C,D8*%
X167887500Y-142460000D03*
X166312500Y-142460000D03*
%TD*%
%TO.C,D7*%
X167887500Y-139680000D03*
X166312500Y-139680000D03*
%TD*%
%TO.C,D6*%
X167800000Y-134100000D03*
X166225000Y-134100000D03*
%TD*%
%TO.C,D5*%
X167887500Y-136900000D03*
X166312500Y-136900000D03*
%TD*%
%TO.C,D4*%
X167887500Y-131340000D03*
X166312500Y-131340000D03*
%TD*%
%TO.C,D3*%
X167887500Y-128560000D03*
X166312500Y-128560000D03*
%TD*%
D28*
%TO.C,D2*%
X140800000Y-53900000D03*
X136800000Y-53900000D03*
%TD*%
D32*
%TO.C,D1*%
X115200000Y-56812500D03*
X115200000Y-58387500D03*
%TD*%
D33*
%TO.C,C16*%
X35280000Y-58550000D03*
X35280000Y-60100000D03*
%TD*%
D34*
%TO.C,C15*%
X26930000Y-49310000D03*
X25380000Y-49310000D03*
%TD*%
D17*
%TO.C,C14*%
X127965000Y-96850000D03*
X129515000Y-96850000D03*
%TD*%
%TO.C,C13*%
X128825000Y-88200000D03*
X130375000Y-88200000D03*
%TD*%
D35*
%TO.C,C12*%
X122600000Y-90150000D03*
X122600000Y-88250000D03*
%TD*%
D17*
%TO.C,C11*%
X158350000Y-53400000D03*
X159900000Y-53400000D03*
%TD*%
D36*
%TO.C,C10*%
X150300000Y-41800000D03*
X158700000Y-41800000D03*
%TD*%
%TO.C,C9*%
X163900000Y-51400000D03*
X172300000Y-51400000D03*
%TD*%
D17*
%TO.C,C8*%
X122525000Y-38100000D03*
X124075000Y-38100000D03*
%TD*%
D36*
%TO.C,C7*%
X163900000Y-64000000D03*
X172300000Y-64000000D03*
%TD*%
D17*
%TO.C,C6*%
X39424200Y-54712800D03*
X40974200Y-54712800D03*
%TD*%
D37*
%TO.C,C5*%
X129700000Y-58500000D03*
X121300000Y-58500000D03*
%TD*%
D38*
%TO.C,C4*%
X155300000Y-72500000D03*
X155300000Y-64100000D03*
%TD*%
D39*
%TO.C,C3*%
X147300000Y-63550000D03*
X147300000Y-65450000D03*
%TD*%
%TO.C,C2*%
X123400000Y-74150000D03*
X123400000Y-76050000D03*
%TD*%
D33*
%TO.C,C1*%
X120700000Y-69325000D03*
X120700000Y-70875000D03*
%TD*%
M02*
