M48
; DRILL file {KiCad 8.0.8} date 2025-03-16T07:00:45-0600
; FORMAT={-:-/ absolute / inch / decimal}
; #@! TF.CreationDate,2025-03-16T07:00:45-06:00
; #@! TF.GenerationSoftware,Kicad,Pcbnew,8.0.8
; #@! TF.FileFunction,Plated,1,4,PTH
FMAT,2
INCH
; #@! TA.AperFunction,Plated,PTH,ViaDrill
T1C0.0157
; #@! TA.AperFunction,Plated,PTH,ComponentDrill
T2C0.0197
; #@! TA.AperFunction,Plated,PTH,ComponentDrill
T3C0.0315
; #@! TA.AperFunction,Plated,PTH,ComponentDrill
T4C0.0350
; #@! TA.AperFunction,Plated,PTH,ComponentDrill
T5C0.0394
; #@! TA.AperFunction,Plated,PTH,ComponentDrill
T6C0.0400
; #@! TA.AperFunction,Plated,PTH,ComponentDrill
T7C0.0433
; #@! TA.AperFunction,Plated,PTH,ComponentDrill
T8C0.0469
; #@! TA.AperFunction,Plated,PTH,ComponentDrill
T9C0.0472
; #@! TA.AperFunction,Plated,PTH,ComponentDrill
T10C0.0512
; #@! TA.AperFunction,Plated,PTH,ComponentDrill
T11C0.0642
; #@! TA.AperFunction,Plated,PTH,ComponentDrill
T12C0.0689
; #@! TA.AperFunction,Plated,PTH,ComponentDrill
T13C0.0787
; #@! TA.AperFunction,Plated,PTH,ComponentDrill
T14C0.1154
; #@! TA.AperFunction,Plated,PTH,ComponentDrill
T15C0.1890
%
G90
G05
T1
X0.9441Y-2.7343
X0.9512Y-1.9657
X1.0854Y-2.5841
X1.3268Y-2.7346
X1.3421Y-2.6902
X1.4035Y-2.4173
X1.4421Y-2.3008
X1.8504Y-5.9488
X1.9162Y-5.4199
X1.9843Y-4.7087
X2.2323Y-2.1929
X2.3071Y-4.6811
X2.3504Y-5.3937
X2.3819Y-4.2205
X2.4053Y-3.5372
X2.4449Y-3.0315
X2.4921Y-4.0669
X2.5827Y-1.8937
X3.1177Y-3.6087
X3.1945Y-3.9957
X3.5634Y-3.7472
X3.6429Y-3.6071
X3.7028Y-2.5189
X3.8039Y-3.8508
X4.0815Y-3.7453
X4.1681Y-3.4067
X4.2953Y-3.1142
X4.3232Y-3.8445
X4.4571Y-3.3807
X4.5394Y-2.1732
X4.5961Y-3.7437
X4.6732Y-2.6811
X4.6772Y-2.2008
X4.752Y-2.8504
X4.7598Y-5.6732
X4.7638Y-4.2638
X4.7638Y-5.4812
X4.7677Y-2.6299
X4.7913Y-2.937
X4.8346Y-3.4055
X4.8504Y-3.7008
X4.8622Y-3.0512
X4.8858Y-1.563
X4.9823Y-5.3654
X5.0079Y-3.3976
X5.0755Y-5.5403
X5.0868Y-3.9022
X5.2953Y-2.4646
X5.3701Y-2.9685
X5.3858Y-2.0236
X5.4724Y-2.9685
X5.5945Y-2.9724
X5.6063Y-3.0945
X5.6102Y-3.2087
X6.2165Y-2.4134
X6.2913Y-5.0709
X6.2913Y-5.1791
X6.2913Y-5.2835
X6.2913Y-5.4016
X6.2913Y-5.5
X6.2913Y-5.6102
X6.2913Y-5.6969
X6.2913Y-5.815
X6.3425Y-1.748
X6.3583Y-2.122
X6.6731Y-5.4006
X6.6732Y-5.0669
X6.6732Y-5.1766
X6.6732Y-5.2863
X6.6732Y-5.5056
X6.6732Y-5.6153
X6.6732Y-5.725
X6.6732Y-5.8346
X6.7402Y-3.8661
X6.8031Y-3.8622
X6.8465Y-2.7835
X6.8583Y-2.1299
X6.8661Y-2.4134
T3
X0.9736Y-2.0457
X0.9736Y-2.3457
X1.0736Y-2.0457
X1.0736Y-2.3457
X1.1736Y-2.0457
X1.1736Y-2.3457
X1.2736Y-2.0457
X1.2736Y-2.3457
X2.0453Y-2.118
X2.0453Y-2.1968
X2.0453Y-2.2755
X2.124Y-2.118
X2.124Y-2.1968
X2.124Y-2.2755
X3.5245Y-1.6936
X3.6033Y-1.6936
X3.682Y-1.6936
X3.7608Y-1.6936
T4
X4.2305Y-1.5173
X4.2805Y-1.4173
X4.3305Y-1.5173
X4.3805Y-1.4173
X4.4305Y-1.5173
X4.4805Y-1.4173
X4.5305Y-1.5173
X4.5805Y-1.4173
T5
X1.2654Y-2.4923
X1.2654Y-2.5923
X1.5346Y-2.022
X1.5346Y-2.622
X1.6346Y-2.022
X1.6346Y-2.622
X1.7346Y-2.022
X1.7346Y-2.622
X1.8346Y-2.022
X1.8346Y-2.622
X1.8961Y-1.5535
X1.8961Y-1.6535
X1.9346Y-2.022
X1.9346Y-2.622
X1.9961Y-1.5535
X1.9961Y-1.6535
X2.0346Y-2.022
X2.0346Y-2.622
X2.2346Y-2.022
X2.2346Y-2.622
X2.3346Y-2.022
X2.3346Y-2.622
X2.4346Y-2.022
X2.4346Y-2.622
X2.5346Y-2.022
X2.5346Y-2.622
X2.6346Y-2.022
X2.6346Y-2.622
X2.7346Y-2.022
X2.7346Y-2.622
X2.8346Y-2.022
X2.8346Y-2.622
X2.9346Y-2.022
X2.9346Y-2.622
X3.1346Y-2.022
X3.1346Y-2.622
X3.2346Y-2.022
X3.2346Y-2.622
X3.3346Y-2.022
X3.3346Y-2.622
X3.4346Y-2.022
X3.4346Y-2.622
X3.5346Y-2.022
X3.5346Y-2.622
X3.6346Y-2.022
X3.6346Y-2.622
X3.7346Y-2.022
X3.7346Y-2.622
X3.8346Y-2.022
X3.8346Y-2.622
X4.3425Y-2.6811
X4.3425Y-2.7795
X4.3425Y-2.878
X4.648Y-5.7677
X4.748Y-5.7677
X4.848Y-5.7677
T6
X4.1565Y-1.9327
X4.2545Y-1.9327
X4.5565Y-1.9327
X4.6545Y-1.9327
T7
X6.5047Y-1.5669
X6.6047Y-1.5669
X6.7047Y-1.5669
T8
X2.7516Y-1.7022
X2.8516Y-1.7022
X2.9516Y-1.7022
X3.0516Y-1.7022
X3.1516Y-1.7022
T9
X4.0866Y-2.8819
X4.5906Y-2.878
T10
X1.1435Y-5.4612
X1.1435Y-5.6612
X1.1435Y-5.8612
X1.1435Y-6.0612
X1.2233Y-3.8661
X1.2283Y-3.0984
X1.3021Y-3.6299
X1.3021Y-4.1024
X1.3071Y-2.8622
X1.3071Y-3.3346
X1.4435Y-5.4612
X1.4435Y-5.6612
X1.4435Y-5.8612
X1.4435Y-6.0612
X1.4961Y-4.4735
X1.4961Y-4.9538
X1.7323Y-5.0326
X1.7824Y-3.6299
X1.7824Y-4.1024
X1.7874Y-2.8622
X1.7874Y-3.3346
X1.9685Y-4.4735
X1.9685Y-4.9538
X2.2244Y-4.5444
X2.2244Y-5.0247
X2.4606Y-5.1034
X2.6969Y-4.5444
X2.6969Y-5.0247
X2.9665Y-4.5444
X2.9665Y-5.0247
X3.2028Y-5.1034
X3.439Y-4.5444
X3.439Y-5.0247
X3.7087Y-4.5444
X3.7087Y-5.0247
X3.9449Y-5.1034
X4.1811Y-4.5444
X4.1811Y-5.0247
X4.4508Y-4.5444
X4.4508Y-5.0247
X4.687Y-5.1034
X4.9232Y-4.5444
X4.9232Y-5.0247
X5.1929Y-4.5444
X5.1929Y-5.0247
X5.4291Y-5.1034
X5.5504Y-3.4346
X5.5504Y-3.6346
X5.5504Y-3.8346
X5.5504Y-4.0346
X5.6654Y-4.5444
X5.6654Y-5.0247
X5.8504Y-3.4346
X5.8504Y-3.6346
X5.8504Y-3.8346
X5.8504Y-4.0346
T11
X4.0945Y-1.6142
X4.7165Y-1.6142
T12
X2.7559Y-5.7677
X2.7559Y-6.0827
X2.8346Y-5.9252
X2.9134Y-5.7677
X2.9134Y-6.0827
X2.9921Y-5.9252
X3.0709Y-5.7677
X3.0709Y-6.0827
X3.1496Y-5.9252
X3.2283Y-5.7677
X3.2283Y-6.0827
X3.3071Y-5.9252
X3.3858Y-5.7677
X3.3858Y-6.0827
X3.4646Y-5.9252
X3.5433Y-5.7677
X3.5433Y-6.0827
X3.622Y-5.9252
X3.7008Y-5.7677
X3.7008Y-6.0827
X3.7795Y-5.9252
X3.8583Y-5.7677
X3.8583Y-6.0827
T13
X5.1693Y-6.1339
X6.7205Y-4.3307
T14
X2.5Y-5.9449
X4.1142Y-5.9449
T15
X5.5776Y-5.9984
X6.4409Y-4.0118
T2
G00X5.7953Y-2.2874
M15
G01X5.7953Y-2.2323
M16
G05
G00X5.8959Y-4.3699
M15
G01X5.951Y-4.3699
M16
G05
G00X5.8959Y-4.5156
M15
G01X5.951Y-4.5156
M16
G05
G00X5.8959Y-4.6848
M15
G01X5.951Y-4.6848
M16
G05
G00X5.8959Y-4.8305
M15
G01X5.951Y-4.8305
M16
G05
G00X5.9409Y-2.2874
M15
G01X5.9409Y-2.2323
M16
G05
G00X6.1102Y-2.2874
M15
G01X6.1102Y-2.2323
M16
G05
G00X6.2559Y-2.2874
M15
G01X6.2559Y-2.2323
M16
G05
M30
